<svg xmlns="http://www.w3.org/2000/svg" xmlns:xlink="http://www.w3.org/1999/xlink" width="2000" zoomAndPan="magnify" viewBox="0 0 1500 1499.999933" height="2000" preserveAspectRatio="xMidYMid meet" version="1.0"><path fill="#e05500" d="M 0 942.207031 L 280.3125 1145.152344 C 330.136719 1248.042969 394.542969 1345.261719 469.890625 1423.441406 L 469.890625 1327.4375 C 469.890625 1199.835938 574.398438 1095.734375 701.59375 1095.734375 C 829.191406 1095.734375 933.703125 1200.242188 933.703125 1327.4375 L 933.296875 1423.441406 C 1077.097656 1233.460938 1230.21875 877.800781 1212.394531 644.882812 C 1211.585938 634.351562 1210.371094 623.820312 1209.15625 613.691406 C 992.035156 987.984375 346.339844 1111.125 0 942.207031 " fill-opacity="1" fill-rule="evenodd"/><path fill="#e05500" d="M 804.078125 454.496094 C 679.3125 497.839844 569.539062 443.964844 481.230469 426.546875 C 186.335938 368.214844 122.738281 632.730469 198.894531 925.601562 C 581.691406 988.386719 1159.734375 891.167969 1304.753906 313.933594 L 1166.214844 484.472656 C 1115.582031 401.835938 1024.035156 375.910156 892.382812 468.269531 C 777.746094 548.878906 665.542969 624.628906 537.941406 587.363281 C 537.941406 587.765625 749.390625 573.589844 804.078125 454.496094 " fill-opacity="1" fill-rule="evenodd"/><path fill="#e05500" d="M 1120.039062 178.234375 C 1145.152344 267.753906 1126.925781 251.957031 1216.039062 274.238281 C 1126.519531 299.351562 1142.316406 281.125 1120.039062 370.242188 C 1094.921875 280.71875 1113.152344 296.515625 1024.035156 274.238281 C 1113.554688 249.121094 1097.351562 267.351562 1120.039062 178.234375 " fill-opacity="1" fill-rule="evenodd"/><path fill="#e05500" d="M 1378.882812 497.839844 C 1401.972656 579.664062 1384.957031 565.082031 1467.1875 586.144531 C 1385.363281 609.234375 1399.945312 592.222656 1378.882812 674.453125 C 1355.792969 592.628906 1372.804688 607.210938 1290.574219 586.144531 C 1372.402344 563.058594 1357.816406 579.664062 1378.882812 497.839844 " fill-opacity="1" fill-rule="evenodd"/><path fill="#e05500" d="M 1397.109375 76.558594 C 1423.84375 172.5625 1404.402344 155.550781 1500 179.449219 C 1403.996094 206.183594 1421.011719 186.742188 1397.109375 282.339844 C 1370.375 186.335938 1389.820312 203.347656 1294.222656 179.449219 C 1389.820312 152.714844 1372.804688 172.15625 1397.109375 76.558594 " fill-opacity="1" fill-rule="evenodd"/></svg>